<?xml version="1.0" standalone="no"?>
<!DOCTYPE svg PUBLIC "-//W3C//DTD SVG 20010904//EN"
 "http://www.w3.org/TR/2001/REC-SVG-20010904/DTD/svg10.dtd">
<svg version="1.0" xmlns="http://www.w3.org/2000/svg"
 width="209.000000pt" height="241.000000pt" viewBox="0 0 209.000000 241.000000"
 preserveAspectRatio="xMidYMid meet">

<g transform="translate(0.000000,241.000000) scale(0.100000,-0.100000)"
fill="#000000" stroke="none">
<path d="M989 2301 c-46 -15 -79 -43 -107 -90 l-27 -46 0 -445 0 -445 25 -43
c93 -163 332 -108 355 82 4 28 5 231 3 451 l-3 400 -27 47 c-15 25 -43 56 -62
68 -38 23 -117 34 -157 21z"/>
<path d="M457 1890 c-112 -35 -291 -295 -349 -505 -18 -67 -22 -108 -22 -245
-1 -143 2 -176 22 -249 99 -362 380 -628 747 -707 91 -20 289 -20 380 0 367
79 648 345 747 707 20 73 23 106 22 249 0 137 -4 178 -22 245 -50 180 -188
399 -289 457 -51 29 -118 37 -166 19 -50 -19 -96 -71 -112 -126 -22 -75 -7
-132 53 -194 221 -227 225 -571 11 -805 -154 -169 -405 -234 -619 -159 -47 16
-112 46 -143 67 -78 52 -161 147 -203 231 -110 224 -72 476 101 662 73 80 85
104 85 175 0 63 -34 127 -84 158 -39 24 -117 34 -159 20z"/>
</g>
</svg>
